<svg xmlns="http://www.w3.org/2000/svg" width="24" height="24" viewBox="0 0 24 24">
  <path d="M12.27 19v-1h2.557c.1 0 .2-.02.279-.058.08-.04.16-.1.221-.173L19.75 12l-4.423-5.77c-.06-.07-.14-.13-.221-.172-.08-.04-.18-.058-.279-.058H4.616c-.18 0-.33.06-.443.173-.11.11-.173.26-.173.443v4H3v-4.01c0-.44.16-.82.475-1.134.32-.32.7-.472 1.14-.472h10.212c.26 0 .5.06.727.167.23.11.42.26.565.46L21 12l-4.88 6.373c-.15.2-.34.35-.566.46-.23.11-.47.167-.727.167H12.27z"/>
  <path d="M5.885 20v-3h-3v-1h3v-3h1v3h3v1h-3v3z"/>
</svg>
